<svg width="218" height="125" viewBox="0 0 218 125" fill="none" xmlns="http://www.w3.org/2000/svg">
<path d="M85.5358 34.8722C85.5358 44.3109 78.1535 51.2661 69.0937 51.2661C60.034 51.2661 52.6516 44.3109 52.6516 34.8722C52.6516 25.3669 60.034 18.4783 69.0937 18.4783C78.1535 18.4783 85.5358 25.3669 85.5358 34.8722ZM78.3383 34.8722C78.3383 28.9739 74.0596 24.9383 69.0937 24.9383C64.1279 24.9383 59.8492 28.9739 59.8492 34.8722C59.8492 40.7113 64.1279 44.8061 69.0937 44.8061C74.0596 44.8061 78.3383 40.7039 78.3383 34.8722Z" fill="white"/>
<path d="M121.006 34.8722C121.006 44.3109 113.624 51.2661 104.564 51.2661C95.5046 51.2661 88.1222 44.3109 88.1222 34.8722C88.1222 25.3743 95.5046 18.4783 104.564 18.4783C113.624 18.4783 121.006 25.3669 121.006 34.8722ZM113.809 34.8722C113.809 28.9739 109.53 24.9383 104.564 24.9383C99.5984 24.9383 95.3198 28.9739 95.3198 34.8722C95.3198 40.7113 99.5984 44.8061 104.564 44.8061C109.53 44.8061 113.809 40.7039 113.809 34.8722Z" fill="white"/>
<path d="M154.999 19.4687V48.9009C154.999 61.0078 147.861 65.9526 139.422 65.9526C131.478 65.9526 126.696 60.6383 124.893 56.2922L131.16 53.683C132.276 56.3513 135.01 59.5 139.414 59.5C144.816 59.5 148.164 56.1665 148.164 49.8913V47.5335H147.912C146.301 49.5217 143.198 51.2587 139.281 51.2587C131.086 51.2587 123.578 44.1187 123.578 34.9313C123.578 25.6774 131.086 18.4783 139.281 18.4783C143.19 18.4783 146.294 20.2152 147.912 22.1443H148.164V19.4761H154.999V19.4687ZM148.673 34.9313C148.673 29.1587 144.823 24.9383 139.924 24.9383C134.958 24.9383 130.798 29.1587 130.798 34.9313C130.798 40.6448 134.958 44.8061 139.924 44.8061C144.823 44.8061 148.673 40.6448 148.673 34.9313Z" fill="white"/>
<path d="M166.268 2.21738V50.2609H159.248V2.21738H166.268Z" fill="white"/>
<path d="M193.625 40.2678L199.212 43.993C197.409 46.6613 193.063 51.2587 185.556 51.2587C176.244 51.2587 169.291 44.0596 169.291 34.8648C169.291 25.1156 176.304 18.4709 184.75 18.4709C193.256 18.4709 197.416 25.2413 198.776 28.9L199.522 30.7626L177.612 39.8391C179.289 43.1283 181.898 44.8061 185.556 44.8061C189.221 44.8061 191.763 43.0026 193.625 40.2678ZM176.429 34.3696L191.076 28.2865C190.27 26.2391 187.846 24.8126 184.994 24.8126C181.336 24.8126 176.244 28.0426 176.429 34.3696Z" fill="white"/>
<path d="M26.0783 30.6074V23.6522H49.511C49.7401 24.8643 49.8583 26.2982 49.8583 27.8504C49.8583 33.0687 48.4321 39.5213 43.8357 44.1187C39.365 48.7752 33.6527 51.2587 26.0857 51.2587C12.06 51.2587 0.266022 39.8317 0.266022 25.803C0.266022 11.7743 12.06 0.347382 26.0857 0.347382C33.8448 0.347382 39.3723 3.3926 43.5254 7.36173L38.6186 12.2696C35.6405 9.47564 31.6058 7.3026 26.0783 7.3026C15.8361 7.3026 7.82569 15.5587 7.82569 25.803C7.82569 36.0474 15.8361 44.3035 26.0783 44.3035C32.7216 44.3035 36.5051 41.6352 38.929 39.2109C40.8946 37.2448 42.1878 34.4361 42.6977 30.6L26.0783 30.6074Z" fill="white"/>
<path d="M19.7234 71.9536C19.7234 71.9536 19.1183 70.7234 18.9121 70.3145C17.5369 67.5903 17.5665 67.4452 16.1764 67.2605C15.7873 67.2094 15.5861 67.16 15.5861 66.967V66.1046L15.7032 66.0205C18.2146 66.0172 23.8031 66.0172 23.8031 66.0172L24.0174 66.0881V66.9472C24.0174 67.1435 23.8773 67.2441 23.592 67.2441L23.0049 67.3281C21.5208 67.4436 21.7632 68.0504 22.7493 70.0144L32.1107 89.1675L32.4306 89.2549L40.7416 69.5312C41.0301 68.7364 40.9856 68.1724 40.6146 67.841C40.2419 67.5194 39.9797 67.3265 39.0167 67.2869L38.2367 67.249C38.1411 67.249 38.0504 67.2144 37.963 67.1484C37.8773 67.0874 37.8327 67.0066 37.8327 66.9093V66.0881L37.9515 66.004C40.293 66.004 47.3409 66.004 47.3409 66.004L47.4365 66.0881V66.9093C47.4365 67.1319 47.3095 67.2441 47.0589 67.2441C45.8287 67.2985 44.9168 67.5656 44.3265 68.0422C43.7345 68.522 43.2728 69.1816 42.9413 70.0424C42.9413 70.0424 35.2982 87.535 32.6829 93.351C31.682 95.2573 30.6975 95.0825 29.8318 93.2966C28.0031 89.5303 22.8532 78.1044 22.8532 78.1044L19.7234 71.9536Z" fill="white"/>
<path d="M34.7227 66.0073C34.7227 66.0073 29.441 65.9908 27.0895 66.0073L26.9724 66.0914V66.9093C26.9724 67.0099 27.0153 67.0891 27.1011 67.1501C27.1885 67.2144 27.2775 67.2474 27.3731 67.2474L27.7508 67.2886C28.7121 67.3265 29.1541 67.5805 29.286 67.7371C29.5152 68.0174 29.629 68.3209 29.0733 69.5329L19.2122 89.2021L18.9534 89.1345C18.9534 89.1345 11.8907 74.2424 9.84593 69.2591C9.63321 68.7447 9.53757 68.3604 9.53757 68.1246C9.53757 67.6184 9.99434 67.3447 10.9079 67.3067L11.9731 67.2622C12.2551 67.2622 12.3986 67.1534 12.3986 66.9275V66.1096L12.3029 66.0255C12.3029 66.0255 3.84357 66.0156 2.09564 66.0255L1.99999 66.1096V66.9687C1.99999 67.1237 2.19622 67.2193 2.59033 67.2622C3.66383 67.3199 4.3696 67.4914 4.7093 67.7767C5.04734 68.0653 5.40518 68.7941 5.88009 69.9303C8.44758 76.0975 13.9025 87.103 16.559 93.3708C17.3241 95.0825 18.2855 95.3479 19.453 93.318C21.4747 89.5699 26.9559 78.1176 26.9559 78.1176L31.273 70.0441C31.776 69.1899 32.2608 68.4297 32.5065 68.0768C32.9566 67.4287 33.2089 67.3067 34.4391 67.249C34.6897 67.249 34.8167 67.1369 34.8167 66.911V66.0931L34.7227 66.0073Z" fill="white"/>
<path d="M50.7823 91.5388C50.7823 92.482 51.2111 93.0394 52.583 93.168L53.4834 93.2554C53.612 93.2554 53.7406 93.3395 53.7406 93.511V94.4113L53.6978 94.4987C53.6978 94.4987 50.4393 94.4113 49.1102 94.4113C47.9098 94.4113 44.5656 94.4987 44.5656 94.4987L44.4799 94.4113V93.511C44.4799 93.3395 44.6085 93.2554 44.78 93.2554L45.6375 93.168C47.0523 93.0394 47.481 92.3534 47.481 91.5388V77.2618C47.481 76.3218 46.9649 76.0596 45.6375 75.9343L44.78 75.8453C44.6085 75.8453 44.4799 75.8057 44.4799 75.6738V74.686L44.5227 74.6003C44.5227 74.6003 47.9098 74.686 49.2389 74.686C50.3965 74.686 53.6978 74.6003 53.6978 74.6003L53.7406 74.686V75.6292C53.7406 75.7579 53.6549 75.8436 53.4834 75.8436L52.583 75.931C51.2539 76.058 50.7823 76.4026 50.7823 77.2618V91.5388Z" fill="white"/>
<path d="M63.4351 91.5388C63.4351 92.482 63.9925 92.9536 65.2358 93.168L65.7074 93.2554C65.836 93.2966 65.9647 93.3395 65.9647 93.511V94.4113L65.9218 94.4987C65.9218 94.4987 63.2207 94.4113 61.9345 94.4113C60.734 94.4113 57.2184 94.4987 57.2184 94.4987L57.1326 94.4113V93.511C57.1326 93.3395 57.2613 93.2554 57.4327 93.2554L58.2902 93.168C59.5764 93.0394 60.1338 92.3534 60.1338 91.5388V77.2618C60.1338 76.3218 59.6622 76.0596 58.2902 75.9343L57.4327 75.8453C57.2613 75.8453 57.1326 75.8057 57.1326 75.6738V74.686L57.1755 74.6003C57.1755 74.6003 60.6912 74.686 62.0203 74.686C63.2224 74.686 65.9218 74.6003 65.9218 74.6003L65.9647 74.686V75.6292C65.9647 75.7579 65.8789 75.8007 65.7074 75.8436L65.2358 75.931C63.9067 76.1866 63.4351 76.4026 63.4351 77.2618V83.7374C64.8499 83.7374 65.6645 83.0118 67.551 80.9934C69.266 79.1037 70.5951 77.524 70.5951 76.7044C70.5951 76.3598 70.2092 75.9772 69.3517 75.8453C69.1802 75.8057 69.0945 75.7595 69.0945 75.6309V74.6415L69.1373 74.6019C69.1373 74.6019 72.6101 74.6877 73.8535 74.6877C74.9682 74.6877 76.8547 74.6019 76.8547 74.6019L76.9833 74.6415V75.6309C76.9833 75.7595 76.8547 75.8453 76.6403 75.8453C74.9682 75.9739 73.8106 76.0596 72.2671 77.8175L68.58 82.0587C67.8511 82.8337 67.5939 83.302 67.5939 83.6467C67.5939 83.9039 67.7654 84.1166 67.9797 84.3739L74.4537 92.1769C74.9682 92.7755 75.9972 93.0344 76.8547 93.2043L77.069 93.2455C77.1976 93.2867 77.3691 93.3725 77.3691 93.5011V94.4014L77.2405 94.4443C77.2405 94.4443 74.9682 94.4014 73.7677 94.4014C72.6959 94.4014 71.1524 94.4443 71.1524 94.4443L71.1095 94.4014V93.887C71.1095 93.328 71.0667 92.8596 70.4664 92.1737L65.7074 86.2554C65.0643 85.3963 64.3783 85.1852 63.4351 85.1852V91.5388Z" fill="white"/>
<path d="M86.5491 91.5388C86.5491 92.482 86.9779 93.0394 88.3498 93.168L89.2502 93.2554C89.3788 93.2554 89.5074 93.3395 89.5074 93.511V94.4113L89.4645 94.4987C89.4645 94.4987 86.2061 94.4113 84.877 94.4113C83.6766 94.4113 80.3324 94.4987 80.3324 94.4987L80.2466 94.4113V93.511C80.2466 93.3395 80.3753 93.2554 80.5468 93.2554L81.4042 93.168C82.8191 93.0394 83.2478 92.3534 83.2478 91.5388V77.2618C83.2478 76.3218 82.7333 76.0596 81.4042 75.9343L80.5468 75.8453C80.3753 75.8453 80.2466 75.8057 80.2466 75.6738V74.686L80.2895 74.6003C80.2895 74.6003 83.6766 74.686 85.0057 74.686C86.1633 74.686 89.4645 74.6003 89.4645 74.6003L89.5074 74.686V75.6292C89.5074 75.7579 89.4217 75.8436 89.2502 75.8436L88.3498 75.931C87.0207 76.058 86.5491 76.4026 86.5491 77.2618V91.5388Z" fill="white"/>
<path d="M95.8132 77.3458C95.8132 76.0167 95.2558 75.9738 93.2408 75.8452C92.9835 75.8452 92.9406 75.7182 92.9406 75.6309V74.6448L93.0264 74.6019C93.6695 74.6019 96.1991 74.6876 97.4424 74.6876C98.6429 74.6876 100.358 74.6019 101.944 74.6019C108.029 74.6019 109.144 77.6014 109.144 79.8341C109.144 82.4082 107.9 86.4367 101.816 86.4367C100.744 86.4367 99.8862 86.3493 99.1128 86.008V91.7498C99.1128 92.6914 99.6273 92.9091 101.001 93.1218L101.86 93.2504C102.032 93.2916 102.162 93.3378 102.162 93.506V94.4064L102.122 94.4937C102.122 94.4937 98.6907 94.4064 97.3616 94.4064C96.1611 94.4064 92.9456 94.4937 92.9456 94.4937L92.9027 94.4064V93.506C92.9027 93.3345 92.9885 93.2916 93.16 93.2504L94.0603 93.1218C95.3894 92.9503 95.8181 92.5644 95.8181 91.7498L95.8132 77.3458ZM99.1145 84.8075C99.972 85.1522 101.044 85.1934 101.901 85.1934C104.475 85.1934 105.714 83.6466 105.714 80.3486C105.714 76.6615 104.042 75.8469 101.687 75.8469C99.6273 75.8469 99.1128 76.2327 99.1128 77.3475L99.1145 84.8075Z" fill="white"/>
<path d="M116.528 94.4113C115.242 94.4113 112.285 94.4987 112.285 94.4987L112.241 94.4113V93.4681C112.241 93.384 112.285 93.2554 112.498 93.2554L113.487 93.168C114.818 93.0394 115.204 92.1819 115.204 91.3261V77.1777C115.204 76.1883 114.689 76.0184 113.487 75.9343L112.498 75.8453C112.241 75.8057 112.241 75.7183 112.241 75.6738V74.686L112.285 74.6003C112.285 74.6003 115.628 74.686 116.914 74.686H123.216C124.502 74.686 127.548 74.6003 127.548 74.6003L127.637 74.686C127.677 76.5296 127.977 78.205 128.28 79.8325L127.212 80.004C126.742 78.4161 125.927 76.1454 123.183 76.1454H119.753C118.939 76.1454 118.51 76.4455 118.51 77.1727V83.3911H121.724C122.926 83.3911 123.224 82.8766 123.398 82.0191L123.653 81.1188C123.653 80.9901 123.741 80.9027 123.91 80.9027H124.636C124.725 80.9027 124.725 80.9473 124.725 81.0314C124.636 81.973 124.468 83.1767 124.468 84.2057C124.468 85.2759 124.639 86.1779 124.725 87.164L124.636 87.2514H123.91C123.698 87.2514 123.607 87.164 123.607 87.0354L123.393 86.0938C123.221 85.2347 122.835 84.7631 121.716 84.7631H118.503V91.3244C118.503 92.1357 118.97 92.9503 119.747 92.9503H123.82C126.006 92.9503 127.21 91.5784 127.721 89.3456L128.79 89.4743L127.931 94.4031L127.845 94.4889C127.845 94.4889 125.315 94.4031 124.029 94.4031L116.528 94.4113Z" fill="white"/>
<path d="M132.652 93.2554L133.638 93.1679C134.926 93.0393 135.355 92.6535 135.355 91.326V77.1776C135.355 76.0596 135.051 76.0596 133.638 75.9343L132.698 75.8452C132.526 75.8452 132.395 75.7595 132.395 75.6309V74.6876L132.436 74.6019C132.436 74.6019 136.21 74.6876 136.984 74.6876C137.795 74.6876 141.528 74.6019 142.643 74.6019C149.803 74.6019 153.32 79.0608 153.32 84.763C153.32 92.2676 148.002 94.4937 143.247 94.4937C139.817 94.4937 138.318 94.4064 136.989 94.4064C135.701 94.4064 132.441 94.4937 132.441 94.4937L132.4 94.4064V93.506C132.395 93.384 132.482 93.2554 132.652 93.2554ZM142.214 93.2554C146.929 93.2554 149.59 91.5008 149.59 85.4935C149.59 81.0363 148.603 75.8452 141.4 75.8452C139.728 75.8452 138.656 76.1025 138.656 77.1776V91.326C138.656 92.5232 138.954 93.2554 142.214 93.2554Z" fill="white"/>
<path d="M163.442 91.5388C163.442 92.482 163.871 93.0394 165.243 93.168L166.143 93.2554C166.272 93.2554 166.4 93.3395 166.4 93.511V94.4113L166.357 94.4987C166.357 94.4987 163.099 94.4113 161.771 94.4113C160.569 94.4113 157.227 94.4987 157.227 94.4987L157.139 94.4113V93.511C157.139 93.3395 157.268 93.2554 157.44 93.2554L158.299 93.168C159.712 93.0394 160.142 92.3534 160.142 91.5388V77.2618C160.142 76.3218 159.626 76.0596 158.299 75.9343L157.44 75.8453C157.268 75.8453 157.139 75.8057 157.139 75.6738V74.686L157.182 74.6003C157.182 74.6003 160.569 74.686 161.895 74.686C163.051 74.686 166.356 74.6003 166.356 74.6003L166.395 74.686V75.6292C166.395 75.7579 166.306 75.8436 166.138 75.8436L165.238 75.931C163.907 76.058 163.437 76.4026 163.437 77.2618L163.442 91.5388Z" fill="white"/>
<path d="M176.65 93.168L177.894 93.2554C178.065 93.2554 178.237 93.384 178.237 93.5967V94.4113L178.151 94.4987C178.151 94.4987 173.478 94.4113 172.449 94.4113C171.332 94.4113 168.588 94.4987 168.588 94.4987L168.501 94.4113V93.5967C168.501 93.384 168.63 93.2554 168.846 93.2554C170.734 93.1268 171.802 92.7821 173.003 90.0382L182.519 67.7421C182.989 66.6273 183.334 66.197 183.98 66.197C184.577 66.197 184.793 66.6274 185.135 67.4848L193.924 90.7225C194.526 92.3963 195.385 93.0377 197.1 93.2092L197.57 93.2504C197.786 93.2504 198 93.3774 198 93.5951V94.4064L197.871 94.4938C197.871 94.4938 194.57 94.4064 192.896 94.4064C191.396 94.4064 187.192 94.4938 187.192 94.4938L187.153 94.4064V93.5951C187.153 93.3774 187.239 93.2504 187.458 93.2504L188.658 93.1631C190.286 93.0361 190.89 92.5183 190.459 91.3211L187.844 84.0721H178.923C177.894 84.0721 177.637 84.2436 177.424 84.7977L174.935 91.0161C174.507 92.0945 175.064 93.0394 176.65 93.168ZM187.155 82.2747L182.996 70.829H182.91L178.623 81.719C178.451 82.151 178.75 82.2764 179.693 82.2764H187.155V82.2747Z" fill="white"/>
<path d="M210.537 55.164V62.382H217.647V65.226H210.537V72.39H207.405V65.226H200.367V62.382H207.405V55.164H210.537Z" fill="white"/>
<path d="M57.1218 112.812L62.9868 116.442V118.137L57.1443 121.767L56.0718 120.155L60.9468 117.29L56.0718 114.515L57.1218 112.812Z" fill="white"/>
<path d="M64.7734 124.79V122.93H72.2734V124.79H64.7734Z" fill="white"/>
<path d="M78.7326 113.487V122H76.2726V113.487H73.3551V111.605H81.7701L81.5151 113.487H78.7326Z" fill="white"/>
<path d="M85.8667 113.36V115.857H89.4667V117.582H85.8667V120.237H90.2092V122H83.4067V111.605H90.2017L89.9542 113.36H85.8667Z" fill="white"/>
<path d="M99.4284 114.762C99.4284 115.257 99.3359 115.69 99.1509 116.06C98.9659 116.43 98.7158 116.742 98.4008 116.997C98.0858 117.252 97.7334 117.457 97.3434 117.612L100.066 122H97.2833L95.0333 118.025H94.3359V122H91.8759V111.605H95.1459C96.5609 111.605 97.6284 111.862 98.3484 112.377C99.0684 112.892 99.4284 113.687 99.4284 114.762ZM96.8933 114.762C96.8933 114.262 96.7459 113.9 96.4509 113.675C96.1609 113.445 95.7284 113.33 95.1534 113.33H94.3359V116.337H95.2509C95.7859 116.337 96.1934 116.212 96.4734 115.962C96.7534 115.712 96.8933 115.312 96.8933 114.762Z" fill="white"/>
<path d="M108.152 111.605L108.737 122H106.592L106.465 117.552C106.455 117.137 106.45 116.767 106.45 116.442C106.455 116.117 106.462 115.812 106.472 115.527C106.482 115.237 106.497 114.947 106.517 114.657C106.542 114.362 106.567 114.042 106.592 113.697L105.422 120.23H103.562L102.302 113.697C102.332 114.027 102.357 114.34 102.377 114.635C102.402 114.925 102.42 115.217 102.43 115.512C102.44 115.807 102.447 116.125 102.452 116.465C102.457 116.8 102.455 117.175 102.445 117.59L102.37 122H100.262L100.847 111.605H103.375L104.53 118.325L105.625 111.605H108.152Z" fill="white"/>
<path d="M116.869 111.605V113.405H114.724V120.192H116.869V122H110.119V120.192H112.264V113.405H110.119V111.605H116.869Z" fill="white"/>
<path d="M123.223 122L120.486 113.637C120.521 113.862 120.558 114.135 120.598 114.455C120.643 114.77 120.686 115.122 120.726 115.512C120.766 115.897 120.798 116.307 120.823 116.742C120.848 117.177 120.861 117.622 120.861 118.077V122H118.768V111.605H121.836L124.491 119.922C124.436 119.607 124.378 119.232 124.318 118.797C124.263 118.357 124.216 117.867 124.176 117.327C124.136 116.787 124.116 116.207 124.116 115.587V111.605H126.208V122H123.223Z" fill="white"/>
<path d="M132.982 119.757H129.937L129.39 122H126.817L129.997 111.605H132.982L136.162 122H133.53L132.982 119.757ZM130.327 117.972H132.577L131.452 113.375L130.327 117.972Z" fill="white"/>
<path d="M137.372 122V111.605H139.832V120.057H144.339L144.084 122H137.372Z" fill="white"/>
</svg>
